# xmcd
#
# Track frame offsets: 
#        150
#        11462
#        25727
#        39574
#        56058
#        86254
#        107079
#        123442
#        136678
#        152954
#        170059
#        188877
#        205718
#        224897
#        242984
#        264989
#        280539
#
# Disc length: 4026 seconds
#
# Revision: 0
# Processed by: cddbd v1.5.2PL0 Copyright (c) Steve Scherf et al.
# Submitted via: ExactAudioCopy v1.0b3
#
DISCID=ed0fb811
DTITLE=Willie K - Warehouse Blues
DYEAR=2011
DGENRE=
TTITLE0=Warehouse Blues
TTITLE1=Too Bad
TTITLE2=Crazy It Seems
TTITLE3=Spin U Around
TTITLE4=Heart Aching Blues
TTITLE5=Driving Miss Daisy
TTITLE6=Howling At the Moon
TTITLE7=Easy Little Baby
TTITLE8=Nasty Thing
TTITLE9=Lonely Man
TTITLE10=World Singing the Blues
TTITLE11=Good Thing
TTITLE12=Sweet Loving Woman
TTITLE13=Hookline
TTITLE14=Roll Me Over
TTITLE15=Let the Good Times Roll
TTITLE16=Give It To Me
EXTD=
EXTT0=
EXTT1=
EXTT2=
EXTT3=
EXTT4=
EXTT5=
EXTT6=
EXTT7=
EXTT8=
EXTT9=
EXTT10=
EXTT11=
EXTT12=
EXTT13=
EXTT14=
EXTT15=
EXTT16=
PLAYORDER=
